HIERARCHY
ROOT joint_Root
{
	OFFSET 0.0 0.0 0.0
	CHANNELS 6 Xposition Yposition Zposition Zrotation Xrotation Yrotation 
	JOINT Hips
	{
		OFFSET -17.1583 93.1646 452.98
		CHANNELS 6 Xposition Yposition Zposition Zrotation Xrotation Yrotation 
		JOINT Spine
		{
			OFFSET 15.7357 0.0 0.0
			CHANNELS 6 Xposition Yposition Zposition Zrotation Xrotation Yrotation 
			JOINT Chest
			{
				OFFSET 8.98455 -0.406207 0.0
				CHANNELS 6 Xposition Yposition Zposition Zrotation Xrotation Yrotation 
				JOINT Neck
				{
					OFFSET 16.3773 0.0 0.0
					CHANNELS 6 Xposition Yposition Zposition Zrotation Xrotation Yrotation 
					JOINT Head
					{
						OFFSET 6.45672 0.0 0.0
						CHANNELS 6 Xposition Yposition Zposition Zrotation Xrotation Yrotation 
						End Site
						{
							OFFSET 0.0 0.0 0.0
						}
					}
				}
				JOINT Shoulder_L
				{
					OFFSET 12.9942 -0.242716 4.98039
					CHANNELS 6 Xposition Yposition Zposition Zrotation Xrotation Yrotation 
					JOINT UpperArm_L
					{
						OFFSET 5.34809 0.0 0.0
						CHANNELS 6 Xposition Yposition Zposition Zrotation Xrotation Yrotation 
						JOINT LowerArm_L
						{
							OFFSET 24.3286 1.87007e-05 0.0
							CHANNELS 6 Xposition Yposition Zposition Zrotation Xrotation Yrotation 
							JOINT Hand_L
							{
								OFFSET 22.2916 0.0 0.0
								CHANNELS 6 Xposition Yposition Zposition Zrotation Xrotation Yrotation 
								End Site
								{
									OFFSET 0.0 0.0 0.0
								}
							}
						}
					}
				}
				JOINT Shoulder_R
				{
					OFFSET 12.9945 -0.242716 -4.98039
					CHANNELS 6 Xposition Yposition Zposition Zrotation Xrotation Yrotation 
					JOINT UpperArm_R
					{
						OFFSET -5.34813 0.0 0.0
						CHANNELS 6 Xposition Yposition Zposition Zrotation Xrotation Yrotation 
						JOINT LowerArm_R
						{
							OFFSET -24.3289 0.000322201 0.0
							CHANNELS 6 Xposition Yposition Zposition Zrotation Xrotation Yrotation 
							JOINT Hand_R
							{
								OFFSET -22.2915 -0.000108084 0.0
								CHANNELS 6 Xposition Yposition Zposition Zrotation Xrotation Yrotation 
								End Site
								{
									OFFSET 0.0 0.0 0.0
								}
							}
						}
					}
				}
			}
		}
		JOINT UpperLeg_L
		{
			OFFSET -2.19248 -6.46944 0.0
			CHANNELS 6 Xposition Yposition Zposition Zrotation Xrotation Yrotation 
			JOINT LowerLeg_L
			{
				OFFSET 39.0811 0.0 -1.23785e-05
				CHANNELS 6 Xposition Yposition Zposition Zrotation Xrotation Yrotation 
				JOINT Foot_L
				{
					OFFSET 40.9854 0.0 -1.26872e-05
					CHANNELS 6 Xposition Yposition Zposition Zrotation Xrotation Yrotation 
					JOINT Toes_L
					{
						OFFSET 11.7543 0.0 0.0
						CHANNELS 6 Xposition Yposition Zposition Zrotation Xrotation Yrotation 
						End Site
						{
							OFFSET 0.0 0.0 0.0
						}
					}
				}
			}
		}
		JOINT UpperLeg_R
		{
			OFFSET -2.19251 6.46944 0.0
			CHANNELS 6 Xposition Yposition Zposition Zrotation Xrotation Yrotation 
			JOINT LowerLeg_R
			{
				OFFSET -39.0811 -0.00228153 -0.0401928
				CHANNELS 6 Xposition Yposition Zposition Zrotation Xrotation Yrotation 
				JOINT Foot_R
				{
					OFFSET -40.9854 0.0 0.0
					CHANNELS 6 Xposition Yposition Zposition Zrotation Xrotation Yrotation 
					JOINT Toes_R
					{
						OFFSET -11.7543 0.0 0.0
						CHANNELS 6 Xposition Yposition Zposition Zrotation Xrotation Yrotation 
						End Site
						{
							OFFSET 0.0 0.0 0.0
						}
					}
				}
			}
		}
	}
}
MOTION
Frames:	4
Frame Time:	0.0333333
0.000000 0.000000 0.000000 0.000000 0.000000 -0.000000 -4.324600 91.501700 -0.465931 84.493700 -2.050450 8.084820 15.735700 0.000005 -0.000001 84.734500 85.784500 -82.677500 8.984550 -0.406207 -0.000000 0.649090 -0.901144 4.116070 16.377300 -0.000001 -0.000001 11.277100 2.300620 -11.913900 6.456720 -0.000001 -0.000000 -6.241150 3.187080 -19.601500 12.994200 -0.242716 4.980390 -92.986100 7.812470 -69.005300 5.348090 -0.000007 -0.000001 -76.047100 -6.807850 -12.158900 24.328600 0.000019 0.000005 32.003500 -35.650300 -133.003000 22.291600 -0.000001 0.000005 38.955200 4.947770 8.410770 12.994500 -0.242716 -4.980390 87.373900 7.015070 -69.416300 -5.348130 -0.000001 -0.000004 -69.257600 31.799300 -3.570670 -24.328900 0.000322 -0.000009 1.195640 4.284620 -15.621000 -22.291500 -0.000108 -0.000004 -2.726610 5.295080 0.209874 -2.192480 -6.469440 -0.000000 -173.446000 3.899520 -0.078536 39.081100 -0.000007 -0.000012 0.432065 -0.746604 30.059400 40.985400 -0.000006 -0.000013 -0.397965 2.210640 -77.623500 11.754300 -0.000000 0.000003 0.000108 0.165791 -9.852530 -2.192510 6.469440 -0.000001 -170.152000 8.168050 -172.974000 -39.081100 -0.002282 -0.040193 0.177122 -0.552189 17.471200 -40.985400 0.000008 0.000006 6.979600 2.718600 -72.564000 -11.754300 -0.000006 -0.000006 -0.011402 0.281499 -5.133860
0.000000 0.000000 0.000000 0.000000 0.000000 -0.000000 -4.181870 91.532200 -0.451487 84.539400 -2.092280 7.941390 15.735700 0.000005 -0.000001 84.690300 85.784100 -82.642700 8.984550 -0.406207 -0.000000 0.649140 -0.907092 4.097420 16.377300 -0.000001 -0.000001 11.263300 2.272560 -11.857900 6.456720 -0.000001 -0.000000 -6.323110 3.212710 -19.534200 12.994200 -0.242716 4.980390 -92.995000 7.806820 -68.934600 5.348090 -0.000007 -0.000001 -75.972100 -7.050360 -12.115700 24.328600 0.000019 0.000005 32.209200 -35.678800 -132.795000 22.291600 -0.000001 0.000005 39.030400 4.936680 8.636700 12.994500 -0.242716 -4.980390 87.372500 7.031520 -69.450000 -5.348130 -0.000001 -0.000004 -69.290500 31.838800 -3.603150 -24.328900 0.000322 -0.000009 1.170360 4.238610 -15.464600 -22.291500 -0.000108 -0.000004 -2.702280 5.293900 0.242783 -2.192480 -6.469440 -0.000000 -173.581000 3.819610 -0.133623 39.081100 -0.000007 -0.000012 0.426479 -0.741995 29.890200 40.985400 -0.000006 -0.000013 -0.296760 2.174100 -77.512200 11.754300 -0.000000 0.000003 0.000009 0.167465 -9.784540 -2.192510 6.469440 -0.000001 -170.308000 8.186150 -173.066000 -39.081100 -0.002282 -0.040193 0.174594 -0.546791 17.392100 -40.985400 0.000008 0.000006 6.897860 2.869710 -72.517600 -11.754300 -0.000006 -0.000006 -0.011200 0.280066 -5.192500
0.000000 0.000000 0.000000 0.000000 0.000000 -0.000000 -4.047810 91.574300 -0.444698 84.595300 -2.054090 7.831700 15.735700 0.000005 -0.000001 84.808300 85.768400 -82.764600 8.984550 -0.406207 -0.000000 0.681813 -0.891822 4.089730 16.377300 -0.000001 -0.000001 11.229300 2.243210 -11.823900 6.456720 -0.000001 -0.000000 -6.371910 3.126770 -19.514100 12.994200 -0.242716 4.980390 -93.027600 7.905580 -68.965900 5.348090 -0.000007 -0.000001 -75.909800 -7.551070 -12.197000 24.328600 0.000019 0.000005 32.300500 -35.580700 -132.626000 22.291600 -0.000001 0.000005 38.831800 4.931910 8.734650 12.994500 -0.242716 -4.980390 87.354800 7.060070 -69.399300 -5.348130 -0.000001 -0.000004 -69.263100 31.818500 -3.662570 -24.328900 0.000322 -0.000009 1.201920 4.358560 -15.445900 -22.291500 -0.000108 -0.000004 -2.664900 5.293150 0.263630 -2.192480 -6.469440 -0.000000 -173.730000 3.768220 -0.123150 39.081100 -0.000007 -0.000012 0.427665 -0.751030 29.660000 40.985400 -0.000006 -0.000013 -0.193898 2.170650 -77.472800 11.754300 -0.000000 0.000003 -0.000125 0.169703 -9.693640 -2.192510 6.469440 -0.000001 -170.454000 8.129500 -173.117000 -39.081100 -0.002282 -0.040193 0.169070 -0.532905 17.277000 -40.985400 0.000008 0.000006 6.660210 2.854420 -72.486900 -11.754300 -0.000006 -0.000006 -0.011258 0.280477 -5.175670
0.000000 0.000000 0.000000 0.000000 0.000000 -0.000000 -3.899080 91.603200 -0.447724 84.617600 -1.995510 7.690120 15.735700 0.000005 -0.000001 84.846800 85.755400 -82.803600 8.984550 -0.406207 -0.000000 0.708049 -0.887996 4.088930 16.377300 -0.000001 -0.000001 11.171600 2.181580 -11.749900 6.456720 -0.000001 -0.000000 -6.428360 3.049800 -19.457500 12.994200 -0.242716 4.980390 -93.032900 7.914480 -68.953800 5.348090 -0.000007 -0.000001 -75.917100 -8.096150 -12.298900 24.328600 0.000019 0.000005 32.507800 -35.393300 -132.267000 22.291600 -0.000001 0.000005 38.694200 4.937700 8.617120 12.994500 -0.242716 -4.980390 87.355800 7.055470 -69.394400 -5.348130 -0.000001 -0.000004 -69.270800 31.909300 -3.755620 -24.328900 0.000322 -0.000009 1.199640 4.338130 -15.487000 -22.291500 -0.000108 -0.000004 -2.628140 5.294860 0.216274 -2.192480 -6.469440 -0.000000 -173.825000 3.689990 -0.235650 39.081100 -0.000007 -0.000012 0.423500 -0.747917 29.521400 40.985400 -0.000006 -0.000013 -0.051508 2.276120 -77.276600 11.754300 -0.000000 0.000003 -0.000067 0.168738 -9.732810 -2.192510 6.469440 -0.000001 -170.564000 8.071030 -173.269000 -39.081100 -0.002282 -0.040193 0.165210 -0.521163 17.256100 -40.985400 0.000008 0.000006 6.423130 2.848030 -72.399900 -11.754300 -0.000006 -0.000006 -0.011377 0.281323 -5.141050
